<svg width="16" height="16" viewBox="0 0 16 16" fill="none" xmlns="http://www.w3.org/2000/svg">
<path d="M3.20833 0.5C1.71256 0.5 0.5 1.71257 0.5 3.20833V12.7917C0.5 14.2874 1.71257 15.5 3.20833 15.5H12.7917C14.2874 15.5 15.5 14.2874 15.5 12.7917V3.20833C15.5 1.71256 14.2874 0.5 12.7917 0.5H3.20833ZM11.5668 6.15028L7.40017 10.3167C7.15608 10.5608 6.76033 10.5608 6.51633 10.3167L4.84647 8.64692C4.60239 8.40283 4.60239 8.00708 4.84647 7.76308C5.09054 7.519 5.48627 7.519 5.73035 7.76308L6.95825 8.99092L10.683 5.26638C10.9271 5.02231 11.3227 5.02232 11.5668 5.2664C11.8109 5.51048 11.8109 5.90622 11.5668 6.15028Z" fill="#242424"/>
</svg>
