<svg width="17" height="17" viewBox="0 0 17 17" fill="none" xmlns="http://www.w3.org/2000/svg">
<path fill-rule="evenodd" clip-rule="evenodd" d="M9.29183 8.04294V4.54168C9.29183 4.10468 8.93716 3.75001 8.50016 3.75001C8.06316 3.75001 7.7085 4.10468 7.7085 4.54168V8.49117C7.7071 8.63087 7.74274 8.76892 7.81142 8.89041C7.88857 9.02151 7.99031 9.1214 8.11198 9.19003L11.5323 11.1648C11.9108 11.3833 12.3953 11.2535 12.6138 10.875C12.8323 10.4966 12.7025 10.0121 12.324 9.79357L9.29183 8.04294ZM8.50016 0.583344C12.8725 0.583344 16.4168 4.12765 16.4168 8.50001C16.4168 12.8724 12.8725 16.4167 8.50016 16.4167C4.1278 16.4167 0.583496 12.8724 0.583496 8.50001C0.583496 4.12765 4.1278 0.583344 8.50016 0.583344Z" fill="#242424"/>
</svg>
