<svg width="17" height="17" viewBox="0 0 17 17" fill="none" xmlns="http://www.w3.org/2000/svg">
<path d="M0 13.4572V14.875C0 16.0454 2.82559 17 6.375 17C9.86465 17 12.75 16.0454 12.75 14.875V13.4556C11.382 14.4234 8.87187 14.875 6.375 14.875C3.87813 14.875 1.36963 14.4234 0 13.4572ZM10.625 4.25C14.1146 4.25 17 3.29541 17 2.125C17 0.95459 14.1445 0 10.625 0C7.07559 0 4.25 0.95459 4.25 2.125C4.25 3.29541 7.07559 4.25 10.625 4.25ZM0 9.97422V11.6875C0 12.8579 2.82559 13.8125 6.375 13.8125C9.86465 13.8125 12.75 12.8579 12.75 11.6875V9.97422C11.382 11.1031 8.86856 11.6875 6.375 11.6875C3.88145 11.6875 1.36963 11.1031 0 9.97422ZM13.8125 10.3395C15.715 9.96758 17 9.29023 17 8.5V7.07891C16.228 7.62676 15.0991 7.99631 13.8125 8.22441V10.3395ZM6.375 5.3125C2.82559 5.3125 0 6.50117 0 7.96875C0 9.43633 2.82559 10.625 6.375 10.625C9.86465 10.625 12.75 9.43799 12.75 7.96875C12.75 6.49951 9.86465 5.3125 6.375 5.3125ZM13.6531 7.17852C15.6486 6.82324 17 6.11602 17 5.3125V3.89141C15.8213 4.7258 13.7959 5.17404 11.6609 5.28195C12.6438 5.75742 13.3643 6.39492 13.6531 7.17852Z" fill="black"/>
</svg>
