<svg width="15" height="14" viewBox="0 0 15 14" fill="none" xmlns="http://www.w3.org/2000/svg">
<path d="M0.27685 0.923433C0.415382 0.679715 0.61636 0.477318 0.859098 0.337074C1.10183 0.19683 1.37756 0.123807 1.65789 0.12552L13.3423 0.125522C13.6222 0.125433 13.8972 0.199106 14.1397 0.339121C14.3821 0.479135 14.5833 0.68055 14.7231 0.923081C14.8629 1.16561 14.9364 1.4407 14.936 1.72064C14.9357 2.00059 14.8616 2.2755 14.7212 2.5177L8.87905 12.6109L8.87957 12.6109C8.73954 12.8528 8.53837 13.0536 8.29625 13.1932C8.05413 13.3328 7.77956 13.4062 7.50009 13.4062C7.22061 13.4062 6.94604 13.3328 6.70392 13.1932C6.4618 13.0536 6.26064 12.8528 6.1206 12.6109L0.278925 2.5177C0.136946 2.27612 0.0619126 2.00106 0.0615483 1.72085C0.0611831 1.44063 0.1355 1.16538 0.27685 0.923433Z" fill="#242424"/>
</svg>
