	<svg width="8" height="7" viewBox="0 0 8 7" fill="none" xmlns="http://www.w3.org/2000/svg">
	<path d="M7.39893 6.62427C7.33374 6.73896 7.23916 6.8342 7.12493 6.9002C7.0107 6.9662 6.88095 7.00056 6.74903 6.99976L1.25049 6.99976C1.11875 6.9998 0.98933 6.96513 0.875254 6.89924C0.761178 6.83335 0.666476 6.73857 0.600684 6.62443C0.534893 6.5103 0.500334 6.38085 0.500489 6.24911C0.500643 6.11737 0.535506 5.988 0.601565 5.87402L3.35083 1.12427H3.35059C3.41649 1.01045 3.51115 0.915958 3.62509 0.850268C3.73903 0.784579 3.86824 0.75 3.99976 0.75C4.13128 0.75 4.26048 0.784579 4.37442 0.850268C4.48836 0.915958 4.58303 1.01045 4.64893 1.12427L7.39795 5.87402C7.46477 5.98771 7.50007 6.11715 7.50025 6.24901C7.50042 6.38088 7.46545 6.51041 7.39893 6.62427Z" fill="white"/>
	</svg>