<svg width="34" height="34" viewBox="0 0 34 34" fill="none" xmlns="http://www.w3.org/2000/svg">
<path d="M17.0001 1.30566C8.3321 1.30566 1.30566 8.3321 1.30566 17.0001C1.30566 25.668 8.3321 32.6945 17.0001 32.6945C25.668 32.6945 32.6945 25.668 32.6945 17.0001C32.6945 8.3321 25.668 1.30566 17.0001 1.30566ZM22.1466 17.8745C21.5163 17.864 20.94 17.8824 20.2073 17.8507C20.0883 17.8453 18.1799 17.8739 18.1856 17.9085C18.3244 18.7572 18.1251 19.6589 18.137 20.517C18.1442 21.0172 18.291 25.5419 18.2234 27.2109L14.4416 27.2456C14.4259 25.8244 14.4953 24.3628 14.4337 22.4883C14.4212 22.1031 14.4086 18.0476 14.3637 17.8341C14.3637 17.8341 12.6923 17.846 11.9109 17.8507C11.9109 17.8507 11.9004 16.3541 11.9004 15.8478C11.9004 15.3504 11.9004 14.8536 11.9004 14.3562C11.9004 14.3562 13.8513 14.2481 14.4113 14.1995C14.4113 14.1995 14.4684 12.3009 14.5459 11.6859C14.6354 10.9834 14.6442 10.2735 15.0566 9.65199C15.8124 8.51434 16.5584 7.51168 17.948 7.20942C18.4736 7.0945 21.9399 6.41314 22.0684 6.9738L21.9896 10.3493C21.0471 10.3493 19.9176 10.2538 18.9557 10.9681C18.4202 11.3666 18.2723 11.6984 18.2183 12.354C18.186 12.7351 18.1785 14.2777 18.1785 14.2777C18.6865 14.3501 19.4382 14.3181 19.9842 14.2777C20.601 14.2318 22.1844 14.3953 22.1844 14.3953C22.1837 15.4163 22.1429 17.7736 22.1466 17.8745Z" fill="white"/>
</svg>
