<svg width="22" height="20" viewBox="0 0 22 20" fill="none" xmlns="http://www.w3.org/2000/svg">
<path d="M3.4375 6.99219H0.859375C0.384742 6.99219 0 7.37693 0 7.85156V18.5938C0 19.0684 0.384742 19.4531 0.859375 19.4531H3.4375C3.91213 19.4531 4.29688 19.0684 4.29688 18.5938V7.85156C4.29688 7.37693 3.91213 6.99219 3.4375 6.99219Z" fill="#C4C4C4"/>
<path d="M3.4375 6.99219H0.859375C0.384742 6.99219 0 7.37693 0 7.85156V18.5938C0 19.0684 0.384742 19.4531 0.859375 19.4531H3.4375C3.91213 19.4531 4.29688 19.0684 4.29688 18.5938V7.85156C4.29688 7.37693 3.91213 6.99219 3.4375 6.99219Z" fill="url(#paint0_linear_273_178)"/>
<path d="M14.4864 6.99219C13.8246 6.99219 13.4015 6.28703 13.7129 5.70312L15.2784 2.7678C15.8149 1.76182 15.086 0.546875 13.9459 0.546875C13.5453 0.546875 13.1612 0.705988 12.878 0.989195L7.8818 5.98539C7.23718 6.63005 6.875 7.50437 6.875 8.41604V16.0156C6.875 17.9141 8.41401 19.4531 10.3125 19.4531H17.43C18.6032 19.4531 19.6285 18.661 19.9247 17.5258L21.926 9.85395C21.9751 9.66562 22 9.47178 22 9.27718C22 8.01523 20.977 6.99219 19.715 6.99219H14.4864Z" fill="#C4C4C4"/>
<path d="M14.4864 6.99219C13.8246 6.99219 13.4015 6.28703 13.7129 5.70312L15.2784 2.7678C15.8149 1.76182 15.086 0.546875 13.9459 0.546875C13.5453 0.546875 13.1612 0.705988 12.878 0.989195L7.8818 5.98539C7.23718 6.63005 6.875 7.50437 6.875 8.41604V16.0156C6.875 17.9141 8.41401 19.4531 10.3125 19.4531H17.43C18.6032 19.4531 19.6285 18.661 19.9247 17.5258L21.926 9.85395C21.9751 9.66562 22 9.47178 22 9.27718C22 8.01523 20.977 6.99219 19.715 6.99219H14.4864Z" fill="url(#paint1_linear_273_178)"/>
<defs>
<linearGradient id="paint0_linear_273_178" x1="5.24404" y1="3.76158" x2="-2.88954" y2="4.14063" gradientUnits="userSpaceOnUse">
<stop offset="0.0737504" stop-color="#D9433E"/>
<stop offset="0.763435" stop-color="#F59D0E"/>
<stop offset="1" stop-color="#FF7601"/>
</linearGradient>
<linearGradient id="paint1_linear_273_178" x1="25.334" y1="-4.35474" x2="-3.02681" y2="-1.28837" gradientUnits="userSpaceOnUse">
<stop offset="0.0737504" stop-color="#D9433E"/>
<stop offset="0.763435" stop-color="#F59D0E"/>
<stop offset="1" stop-color="#FF7601"/>
</linearGradient>
</defs>
</svg>
