<svg width="20" height="23" viewBox="0 0 20 23" fill="none" xmlns="http://www.w3.org/2000/svg">
<path d="M17.6514 2.10046L12.5183 0.405824C11.7036 0.136877 10.8543 0 10 0C9.14565 0 8.29638 0.136877 7.48173 0.405824L2.34864 2.10046C1.27605 2.45458 0.546875 3.49474 0.546875 4.67066V13.987C0.546875 15.6998 1.32547 17.3107 2.64444 18.3268L7.67316 22.2006C8.34729 22.7199 9.16267 23 10 23C10.8373 23 11.6527 22.7199 12.3268 22.2006L17.3556 18.3268C18.6745 17.3107 19.4531 15.6998 19.4531 13.987V4.67066C19.4531 3.49474 18.7239 2.45458 17.6514 2.10046ZM13.9499 10.2294L9.69617 14.6765C9.19275 15.2028 8.37655 15.2028 7.87318 14.6765L6.05014 12.7706C5.54672 12.2443 5.54672 11.391 6.05014 10.8648C6.55356 10.3385 7.36975 10.3385 7.87313 10.8648L8.78463 11.8177L12.1268 8.32357C12.6302 7.79727 13.4464 7.79727 13.9498 8.32357C14.4533 8.84983 14.4533 9.70312 13.9499 10.2294Z" fill="#C4C4C4"/>
<path d="M17.6514 2.10046L12.5183 0.405824C11.7036 0.136877 10.8543 0 10 0C9.14565 0 8.29638 0.136877 7.48173 0.405824L2.34864 2.10046C1.27605 2.45458 0.546875 3.49474 0.546875 4.67066V13.987C0.546875 15.6998 1.32547 17.3107 2.64444 18.3268L7.67316 22.2006C8.34729 22.7199 9.16267 23 10 23C10.8373 23 11.6527 22.7199 12.3268 22.2006L17.3556 18.3268C18.6745 17.3107 19.4531 15.6998 19.4531 13.987V4.67066C19.4531 3.49474 18.7239 2.45458 17.6514 2.10046ZM13.9499 10.2294L9.69617 14.6765C9.19275 15.2028 8.37655 15.2028 7.87318 14.6765L6.05014 12.7706C5.54672 12.2443 5.54672 11.391 6.05014 10.8648C6.55356 10.3385 7.36975 10.3385 7.87313 10.8648L8.78463 11.8177L12.1268 8.32357C12.6302 7.79727 13.4464 7.79727 13.9498 8.32357C14.4533 8.84983 14.4533 9.70312 13.9499 10.2294Z" fill="url(#paint0_linear_273_182)"/>
<defs>
<linearGradient id="paint0_linear_273_182" x1="23.6206" y1="-5.96296" x2="-11.8076" y2="-2.02707" gradientUnits="userSpaceOnUse">
<stop offset="0.0737504" stop-color="#D9433E"/>
<stop offset="0.763435" stop-color="#F59D0E"/>
<stop offset="1" stop-color="#FF7601"/>
</linearGradient>
</defs>
</svg>
