<svg width="23" height="23" viewBox="0 0 23 23" fill="none" xmlns="http://www.w3.org/2000/svg">
<path d="M9.09829 1.24678C10.415 -0.0795921 12.5646 -0.079592 13.8925 1.23666L14.7141 2.05678C15.0292 2.37178 15.4569 2.55291 15.907 2.55291H17.0662C18.9344 2.55291 20.4537 4.07053 20.4537 5.93803V7.09791C20.4537 7.54678 20.6337 7.97428 20.9488 8.28928L21.7591 9.09928C22.4006 9.72928 22.7495 10.5843 22.7495 11.4843C22.7607 12.3843 22.4119 13.2404 21.7816 13.8805L20.9488 14.713C20.6337 15.028 20.4537 15.4555 20.4537 15.9067V17.0643C20.4537 18.9318 18.9344 20.4517 17.0662 20.4517H15.907C15.4569 20.4517 15.0292 20.6305 14.7141 20.9455L13.9038 21.7555C13.2398 22.4204 12.3732 22.7455 11.5067 22.7455C10.6401 22.7455 9.77354 22.4204 9.10955 21.7679L8.288 20.9455C7.97289 20.6305 7.54523 20.4517 7.09507 20.4517H5.9359C4.06772 20.4517 2.54842 18.9318 2.54842 17.0643V15.9067C2.54842 15.4555 2.36835 15.028 2.05324 14.7018L1.24295 13.903C-0.073781 12.5879 -0.085035 10.438 1.23169 9.11166L2.05324 8.28928C2.36835 7.97428 2.54842 7.54678 2.54842 7.08553V5.93803C2.54842 4.07053 4.06772 2.55291 5.9359 2.55291H7.09507C7.54523 2.55291 7.97289 2.37178 8.288 2.05678L9.09829 1.24678ZM14.399 13.408C13.8475 13.408 13.4086 13.8479 13.4086 14.3868C13.4086 14.938 13.8475 15.3768 14.399 15.3768C14.9392 15.3768 15.3781 14.938 15.3781 14.3868C15.3781 13.8479 14.9392 13.408 14.399 13.408ZM15.0855 7.90678C14.7028 7.52541 14.0839 7.52541 13.7012 7.90678L7.91662 13.6893C7.53398 14.0718 7.53398 14.7018 7.91662 15.0843C8.09668 15.2755 8.34427 15.3768 8.60312 15.3768C8.87321 15.3768 9.1208 15.2755 9.30087 15.0843L15.0855 9.30291C15.4681 8.92041 15.4681 8.28928 15.0855 7.90678ZM8.61437 7.62553C8.07417 7.62553 7.62401 8.06428 7.62401 8.60428C7.62401 9.15666 8.07417 9.59428 8.61437 9.59428C9.15456 9.59428 9.59347 9.15666 9.59347 8.60428C9.59347 8.06428 9.15456 7.62553 8.61437 7.62553Z" fill="#C4C4C4"/>
<path d="M9.09829 1.24678C10.415 -0.0795921 12.5646 -0.079592 13.8925 1.23666L14.7141 2.05678C15.0292 2.37178 15.4569 2.55291 15.907 2.55291H17.0662C18.9344 2.55291 20.4537 4.07053 20.4537 5.93803V7.09791C20.4537 7.54678 20.6337 7.97428 20.9488 8.28928L21.7591 9.09928C22.4006 9.72928 22.7495 10.5843 22.7495 11.4843C22.7607 12.3843 22.4119 13.2404 21.7816 13.8805L20.9488 14.713C20.6337 15.028 20.4537 15.4555 20.4537 15.9067V17.0643C20.4537 18.9318 18.9344 20.4517 17.0662 20.4517H15.907C15.4569 20.4517 15.0292 20.6305 14.7141 20.9455L13.9038 21.7555C13.2398 22.4204 12.3732 22.7455 11.5067 22.7455C10.6401 22.7455 9.77354 22.4204 9.10955 21.7679L8.288 20.9455C7.97289 20.6305 7.54523 20.4517 7.09507 20.4517H5.9359C4.06772 20.4517 2.54842 18.9318 2.54842 17.0643V15.9067C2.54842 15.4555 2.36835 15.028 2.05324 14.7018L1.24295 13.903C-0.073781 12.5879 -0.085035 10.438 1.23169 9.11166L2.05324 8.28928C2.36835 7.97428 2.54842 7.54678 2.54842 7.08553V5.93803C2.54842 4.07053 4.06772 2.55291 5.9359 2.55291H7.09507C7.54523 2.55291 7.97289 2.37178 8.288 2.05678L9.09829 1.24678ZM14.399 13.408C13.8475 13.408 13.4086 13.8479 13.4086 14.3868C13.4086 14.938 13.8475 15.3768 14.399 15.3768C14.9392 15.3768 15.3781 14.938 15.3781 14.3868C15.3781 13.8479 14.9392 13.408 14.399 13.408ZM15.0855 7.90678C14.7028 7.52541 14.0839 7.52541 13.7012 7.90678L7.91662 13.6893C7.53398 14.0718 7.53398 14.7018 7.91662 15.0843C8.09668 15.2755 8.34427 15.3768 8.60312 15.3768C8.87321 15.3768 9.1208 15.2755 9.30087 15.0843L15.0855 9.30291C15.4681 8.92041 15.4681 8.28928 15.0855 7.90678ZM8.61437 7.62553C8.07417 7.62553 7.62401 8.06428 7.62401 8.60428C7.62401 9.15666 8.07417 9.59428 8.61437 9.59428C9.15456 9.59428 9.59347 9.15666 9.59347 8.60428C9.59347 8.06428 9.15456 7.62553 8.61437 7.62553Z" fill="url(#paint0_linear_272_169)"/>
<defs>
<linearGradient id="paint0_linear_272_169" x1="27.7094" y1="-5.58125" x2="-14.2074" y2="0.0851317" gradientUnits="userSpaceOnUse">
<stop offset="0.0737504" stop-color="#D9433E"/>
<stop offset="0.763435" stop-color="#F59D0E"/>
<stop offset="1" stop-color="#FF7601"/>
</linearGradient>
</defs>
</svg>
