<svg width="34" height="34" viewBox="0 0 34 34" fill="none" xmlns="http://www.w3.org/2000/svg">
<path d="M18.0679 14.3191C16.6665 13.7017 14.9393 14.4344 14.3419 15.8172C13.9519 16.7199 13.9478 17.6267 14.2664 18.374C14.6662 19.312 15.574 19.9985 16.8643 20.1117C18.3461 20.2413 19.6163 19.1913 19.9577 17.7729C20.2762 16.4469 19.2889 14.8574 18.0679 14.3191Z" fill="white"/>
<path d="M20.1216 9.5068C17.7497 9.4235 15.3799 9.53196 13.0071 9.59588C9.95896 9.67748 9.35512 13.1315 9.41938 15.8087C9.42992 16.2493 9.42074 16.7002 9.40544 17.1558C9.33574 19.274 9.39354 23.0004 11.406 24.0928C12.2332 24.5423 13.2274 24.5569 14.143 24.5229C15.2436 24.4814 16.3353 24.4777 17.4359 24.5338C18.973 24.612 20.4935 24.6725 22.0089 24.3121C24.1104 23.8116 24.4719 22.7688 24.6208 20.8988C24.6854 20.0822 24.6198 19.0979 24.6266 18.0867C24.6405 15.8835 25.1274 11.9912 23.2159 10.3459C22.3781 9.6258 21.1749 9.54454 20.1216 9.5068ZM19.5099 21.1039C17.0014 22.9004 13.3039 21.4262 12.4518 18.5566C12.394 18.3624 12.3492 18.1622 12.3189 17.9555C12.102 16.4812 12.7136 14.0985 14.1756 13.1907C17.0922 11.3795 19.5143 12.7079 20.5523 13.9452C21.111 14.6116 21.5247 15.5537 21.6682 16.421C21.9633 18.2077 20.9399 20.0791 19.5099 21.1039ZM22.1925 13.3621C21.5411 13.5616 20.5649 12.8701 21.03 11.712C21.2745 11.1041 21.8882 10.9399 22.6192 11.3336C23.1938 11.6434 23.2825 13.0289 22.1925 13.3621Z" fill="white"/>
<path d="M17.0001 1.30566C8.3321 1.30566 1.30566 8.3321 1.30566 17.0001C1.30566 25.668 8.3321 32.6945 17.0001 32.6945C25.668 32.6945 32.6945 25.668 32.6945 17.0001C32.6945 8.3321 25.668 1.30566 17.0001 1.30566ZM26.2062 17.0585C26.2307 18.2465 26.1569 19.4334 26.1899 20.6228C26.2498 22.7763 25.4729 24.8524 23.2986 25.703C20.6615 26.7346 17.4465 26.1671 14.6819 26.1671C13.4848 26.1671 12.2543 26.2627 11.1055 25.922C10.2266 25.6609 9.65981 25.1638 9.05087 24.4818C8.77682 24.1751 8.59798 23.8677 8.45144 23.4924C7.7439 21.6771 7.8799 20.0108 7.80136 18.1006C7.75614 17.0092 7.7762 15.9155 7.7864 14.8227C7.80068 13.3294 7.79014 11.9936 8.33958 10.5798C8.89446 9.15117 10.7974 8.02474 12.273 7.92784C15.2994 7.72996 18.4865 7.46714 21.4949 7.95062C22.6811 8.14137 23.931 8.53168 24.7837 9.4184C25.8948 10.573 26.1658 12.2227 26.2164 13.8809C26.2504 14.9842 26.1865 16.0909 26.2062 17.0585Z" fill="white"/>
</svg>
