<svg width="15" height="13" viewBox="0 0 15 13" fill="none" xmlns="http://www.w3.org/2000/svg">
<path d="M15 10.2499C15 10.5788 14.9075 10.8836 14.7593 11.1518L10.0232 5.8528L14.708 1.75405C14.8902 2.04325 15 2.38297 15 2.75008V10.2499ZM7.50002 6.81495L14.0187 1.11125C13.7512 0.964806 13.45 0.875 13.125 0.875H1.87499C1.54965 0.875 1.24832 0.964806 0.981903 1.11125L7.50002 6.81495ZM9.31738 6.46988L7.80848 7.79098C7.72022 7.86786 7.61032 7.90626 7.50002 7.90626C7.38965 7.90626 7.27975 7.86786 7.19149 7.79098L5.68225 6.46982L0.886223 11.8366C1.1737 12.0169 1.5106 12.125 1.87496 12.125H13.125C13.4893 12.125 13.8264 12.0169 14.1138 11.8366L9.31738 6.46988ZM0.292079 1.75402C0.10987 2.04322 0 2.38294 0 2.75008V10.25C0 10.5788 0.092063 10.8837 0.240792 11.1519L4.97635 5.85191L0.292079 1.75402Z" fill="#242424"/>
</svg>
