<svg width="17" height="17" viewBox="0 0 17 17" fill="none" xmlns="http://www.w3.org/2000/svg">
<path d="M17 12.7499C17 13.1226 16.8952 13.4681 16.7272 13.7721L11.3596 7.76651L16.669 3.12126C16.8756 3.44902 17 3.83404 17 4.25009V12.7499ZM8.50002 8.85694L15.8879 2.39275C15.5847 2.22678 15.2433 2.125 14.875 2.125H2.12499C1.75626 2.125 1.41477 2.22678 1.11282 2.39275L8.50002 8.85694ZM10.5597 8.46587L8.84961 9.96311C8.74958 10.0502 8.62503 10.0938 8.50002 10.0938C8.37494 10.0938 8.25038 10.0502 8.15036 9.96311L6.43988 8.4658L1.00439 14.5481C1.33019 14.7525 1.71201 14.875 2.12495 14.875H14.875C15.2879 14.875 15.6699 14.7525 15.9956 14.5481L10.5597 8.46587ZM0.331023 3.12122C0.124519 3.44899 0 3.834 0 4.25009V12.75C0 13.1226 0.104338 13.4681 0.272898 13.7721L5.63986 7.76549L0.331023 3.12122Z" fill="#E8960F"/>
</svg>
