<svg width="20" height="20" viewBox="0 0 20 20" fill="none" xmlns="http://www.w3.org/2000/svg">
<path d="M10.1 0C9.89998 0 9.59998 0.0999999 9.39998 0.3L7.39998 2.1L4.89998 1.7C4.29998 1.6 3.79998 2 3.69998 2.6L3.29998 5.1L0.999981 6.3C0.499981 6.6 0.299981 7.2 0.499981 7.7L1.69998 10L0.59998 12.3C0.39998 12.8 0.599981 13.4 0.999981 13.7L3.29998 14.9L3.69998 17.4C3.79998 18 4.29998 18.3 4.89998 18.3L7.39998 17.9L9.19998 19.7C9.59998 20.1 10.2 20.1 10.6 19.7L12.4 17.9L14.9 18.3C15.5 18.4 16 18 16.1 17.4L16.5 14.9L18.8 13.7C19.3 13.4 19.5 12.8 19.2 12.3L18.3 10L19.4 7.7C19.6 7.2 19.4 6.6 19 6.3L16.7 5.1L16.3 2.6C16.2 2 15.7 1.7 15.1 1.7L12.6 2.1L10.8 0.3C10.6 0.0999999 10.3 0 10.1 0ZM7.89998 5C8.49998 5 8.99998 5.2 9.29998 5.6C9.69998 6 9.79998 6.4 9.79998 7V7.5C9.79998 8.1 9.59998 8.6 9.29998 8.9C8.99998 9.3 8.49998 9.5 7.89998 9.5C7.29998 9.5 6.79998 9.3 6.49998 9C6.19998 8.6 5.99998 8.1 5.99998 7.5V7C5.99998 6.4 6.19998 6 6.49998 5.6C6.79998 5.2 7.29998 5 7.89998 5ZM7.89998 6C7.69998 6 7.49998 6.2 7.39998 6.3C7.29998 6.5 7.19998 6.7 7.19998 7V7.5C7.19998 7.8 7.29998 8 7.39998 8.2C7.49998 8.4 7.69998 8.5 7.89998 8.5C8.09998 8.5 8.29998 8.4 8.39998 8.2C8.49998 8 8.59998 7.8 8.59998 7.5V7C8.59998 6.7 8.49998 6.5 8.39998 6.3C8.29998 6.1 8.09998 6 7.89998 6ZM11.6 6L12.5 6.5L8.39998 14.1L7.49998 13.6L11.6 6ZM12.1 10.5C12.7 10.5 13.2 10.7 13.5 11.1C13.8 11.5 14 12 14 12.5V13C14 13.6 13.8 14.1 13.5 14.4C13.2 14.7 12.7 15 12.1 15C11.5 15 11 14.8 10.7 14.4C10.4 14 10.2 13.5 10.2 13V12.5C10.2 11.9 10.4 11.5 10.7 11.1C11 10.7 11.5 10.5 12.1 10.5ZM12.1 11.5C11.9 11.5 11.7 11.6 11.6 11.8C11.5 12 11.4 12.2 11.4 12.5V13C11.4 13.3 11.5 13.5 11.6 13.7C11.7 13.9 11.9 14 12.1 14C12.4 14 12.5 13.9 12.6 13.7C12.7 13.5 12.7 13.3 12.7 13V12.5C12.7 12.2 12.6 12 12.5 11.8C12.5 11.6 12.3 11.5 12.1 11.5Z" fill="#C4C4C4"/>
<path d="M10.1 0C9.89998 0 9.59998 0.0999999 9.39998 0.3L7.39998 2.1L4.89998 1.7C4.29998 1.6 3.79998 2 3.69998 2.6L3.29998 5.1L0.999981 6.3C0.499981 6.6 0.299981 7.2 0.499981 7.7L1.69998 10L0.59998 12.3C0.39998 12.8 0.599981 13.4 0.999981 13.7L3.29998 14.9L3.69998 17.4C3.79998 18 4.29998 18.3 4.89998 18.3L7.39998 17.9L9.19998 19.7C9.59998 20.1 10.2 20.1 10.6 19.7L12.4 17.9L14.9 18.3C15.5 18.4 16 18 16.1 17.4L16.5 14.9L18.8 13.7C19.3 13.4 19.5 12.8 19.2 12.3L18.3 10L19.4 7.7C19.6 7.2 19.4 6.6 19 6.3L16.7 5.1L16.3 2.6C16.2 2 15.7 1.7 15.1 1.7L12.6 2.1L10.8 0.3C10.6 0.0999999 10.3 0 10.1 0ZM7.89998 5C8.49998 5 8.99998 5.2 9.29998 5.6C9.69998 6 9.79998 6.4 9.79998 7V7.5C9.79998 8.1 9.59998 8.6 9.29998 8.9C8.99998 9.3 8.49998 9.5 7.89998 9.5C7.29998 9.5 6.79998 9.3 6.49998 9C6.19998 8.6 5.99998 8.1 5.99998 7.5V7C5.99998 6.4 6.19998 6 6.49998 5.6C6.79998 5.2 7.29998 5 7.89998 5ZM7.89998 6C7.69998 6 7.49998 6.2 7.39998 6.3C7.29998 6.5 7.19998 6.7 7.19998 7V7.5C7.19998 7.8 7.29998 8 7.39998 8.2C7.49998 8.4 7.69998 8.5 7.89998 8.5C8.09998 8.5 8.29998 8.4 8.39998 8.2C8.49998 8 8.59998 7.8 8.59998 7.5V7C8.59998 6.7 8.49998 6.5 8.39998 6.3C8.29998 6.1 8.09998 6 7.89998 6ZM11.6 6L12.5 6.5L8.39998 14.1L7.49998 13.6L11.6 6ZM12.1 10.5C12.7 10.5 13.2 10.7 13.5 11.1C13.8 11.5 14 12 14 12.5V13C14 13.6 13.8 14.1 13.5 14.4C13.2 14.7 12.7 15 12.1 15C11.5 15 11 14.8 10.7 14.4C10.4 14 10.2 13.5 10.2 13V12.5C10.2 11.9 10.4 11.5 10.7 11.1C11 10.7 11.5 10.5 12.1 10.5ZM12.1 11.5C11.9 11.5 11.7 11.6 11.6 11.8C11.5 12 11.4 12.2 11.4 12.5V13C11.4 13.3 11.5 13.5 11.6 13.7C11.7 13.9 11.9 14 12.1 14C12.4 14 12.5 13.9 12.6 13.7C12.7 13.5 12.7 13.3 12.7 13V12.5C12.7 12.2 12.6 12 12.5 11.8C12.5 11.6 12.3 11.5 12.1 11.5Z" fill="url(#paint0_linear_240_254)"/>
<defs>
<linearGradient id="paint0_linear_240_254" x1="23.6788" y1="-5.18518" x2="-11.8795" y2="-0.606523" gradientUnits="userSpaceOnUse">
<stop offset="0.0737504" stop-color="#D9433E"/>
<stop offset="0.763435" stop-color="#F59D0E"/>
<stop offset="1" stop-color="#FF7601"/>
</linearGradient>
</defs>
</svg>
