<svg width="19" height="19" viewBox="0 0 19 19" fill="none" xmlns="http://www.w3.org/2000/svg">
<path d="M16.1843 15.4406C16.1654 15.3004 15.9233 15.0536 15.4583 14.7006C15.3344 14.5936 15.1569 14.4465 14.9268 14.259C14.6964 14.0713 14.4876 13.8991 14.3009 13.7425C14.1137 13.5858 13.9391 13.4353 13.7766 13.291C13.7515 13.2635 13.6719 13.1822 13.538 13.0467C13.4039 12.9115 13.2888 12.8082 13.1919 12.7367C13.0953 12.6656 12.9956 12.6202 12.8929 12.6009C12.7463 12.5733 12.5435 12.6434 12.2844 12.8108C12.0252 12.9785 11.7808 13.1677 11.5513 13.379C11.3218 13.5902 11.0848 13.7808 10.8404 13.9512C10.5957 14.1215 10.4073 14.1942 10.2755 14.1694C10.2093 14.1569 10.1303 14.123 10.0382 14.068C9.94628 14.0127 9.877 13.9672 9.83015 13.9322C9.78386 13.8967 9.70571 13.829 9.59552 13.7283C9.48505 13.6278 9.4235 13.5726 9.41025 13.5625C8.51077 12.8161 7.76943 12.0162 7.18603 11.1627C6.60295 10.3089 6.1271 9.3275 5.75896 8.21817C5.7544 8.20212 5.72526 8.12449 5.67178 7.98544C5.61821 7.84626 5.5834 7.74874 5.56743 7.69245C5.55142 7.63636 5.53441 7.55531 5.51644 7.44947C5.49847 7.34363 5.49561 7.25774 5.50804 7.19168C5.53286 7.0598 5.66911 6.91075 5.9167 6.74477C6.16424 6.5789 6.42815 6.42732 6.70813 6.29037C6.98831 6.15346 7.25336 5.99451 7.50374 5.81398C7.75406 5.63332 7.89299 5.46979 7.92058 5.32319C7.93988 5.22061 7.93391 5.11121 7.90264 4.99529C7.87138 4.87913 7.81702 4.73434 7.73966 4.56029C7.66225 4.38632 7.61534 4.28269 7.59886 4.24908C7.52347 4.04525 7.44686 3.82779 7.36874 3.59673C7.29061 3.36571 7.20625 3.1087 7.11517 2.82591C7.02419 2.54325 6.95156 2.32455 6.89704 2.17008C6.73715 1.60871 6.59535 1.29344 6.4716 1.22477C6.42439 1.19311 6.34944 1.16752 6.24691 1.14823C6.04885 1.11095 5.78358 1.09892 5.45087 1.11233C5.11807 1.1256 4.85258 1.15524 4.65407 1.20152C4.25854 1.28641 3.78585 1.66049 3.23592 2.32358C2.73236 2.94223 2.4171 3.58902 2.29019 4.26343C2.25296 4.46122 2.22958 4.65607 2.22002 4.84802C2.21049 5.03978 2.21666 5.25921 2.23856 5.50629C2.26036 5.75328 2.28076 5.93755 2.29962 6.05859C2.3185 6.17971 2.35537 6.39727 2.41017 6.71133C2.46484 7.02528 2.49711 7.21724 2.50669 7.28736C2.62804 8.05416 2.81159 8.75286 3.05721 9.38364C3.45955 10.431 4.0671 11.5494 4.87947 12.7385C5.69189 13.9275 6.5128 14.9 7.34227 15.6558C7.84054 16.1138 8.42497 16.5388 9.09505 16.9307C9.15695 16.965 9.32408 17.0647 9.5965 17.2301C9.86909 17.3953 10.0584 17.5087 10.1644 17.5704C10.2704 17.6321 10.4347 17.7182 10.6566 17.8283C10.8791 17.9386 11.0811 18.0241 11.2631 18.0851C11.4454 18.1456 11.6354 18.1949 11.8333 18.2321C12.5076 18.359 13.2248 18.3003 13.9843 18.0561C14.8018 17.785 15.3221 17.4805 15.545 17.1426C15.6605 16.9748 15.7844 16.7381 15.9177 16.4329C16.0513 16.1279 16.1364 15.8764 16.1737 15.6784C16.1933 15.5755 16.1967 15.4965 16.1843 15.4406Z" fill="#C4C4C4"/>
<path d="M16.1843 15.4406C16.1654 15.3004 15.9233 15.0536 15.4583 14.7006C15.3344 14.5936 15.1569 14.4465 14.9268 14.259C14.6964 14.0713 14.4876 13.8991 14.3009 13.7425C14.1137 13.5858 13.9391 13.4353 13.7766 13.291C13.7515 13.2635 13.6719 13.1822 13.538 13.0467C13.4039 12.9115 13.2888 12.8082 13.1919 12.7367C13.0953 12.6656 12.9956 12.6202 12.8929 12.6009C12.7463 12.5733 12.5435 12.6434 12.2844 12.8108C12.0252 12.9785 11.7808 13.1677 11.5513 13.379C11.3218 13.5902 11.0848 13.7808 10.8404 13.9512C10.5957 14.1215 10.4073 14.1942 10.2755 14.1694C10.2093 14.1569 10.1303 14.123 10.0382 14.068C9.94628 14.0127 9.877 13.9672 9.83015 13.9322C9.78386 13.8967 9.70571 13.829 9.59552 13.7283C9.48505 13.6278 9.4235 13.5726 9.41025 13.5625C8.51077 12.8161 7.76943 12.0162 7.18603 11.1627C6.60295 10.3089 6.1271 9.3275 5.75896 8.21817C5.7544 8.20212 5.72526 8.12449 5.67178 7.98544C5.61821 7.84626 5.5834 7.74874 5.56743 7.69245C5.55142 7.63636 5.53441 7.55531 5.51644 7.44947C5.49847 7.34363 5.49561 7.25774 5.50804 7.19168C5.53286 7.0598 5.66911 6.91075 5.9167 6.74477C6.16424 6.5789 6.42815 6.42732 6.70813 6.29037C6.98831 6.15346 7.25336 5.99451 7.50374 5.81398C7.75406 5.63332 7.89299 5.46979 7.92058 5.32319C7.93988 5.22061 7.93391 5.11121 7.90264 4.99529C7.87138 4.87913 7.81702 4.73434 7.73966 4.56029C7.66225 4.38632 7.61534 4.28269 7.59886 4.24908C7.52347 4.04525 7.44686 3.82779 7.36874 3.59673C7.29061 3.36571 7.20625 3.1087 7.11517 2.82591C7.02419 2.54325 6.95156 2.32455 6.89704 2.17008C6.73715 1.60871 6.59535 1.29344 6.4716 1.22477C6.42439 1.19311 6.34944 1.16752 6.24691 1.14823C6.04885 1.11095 5.78358 1.09892 5.45087 1.11233C5.11807 1.1256 4.85258 1.15524 4.65407 1.20152C4.25854 1.28641 3.78585 1.66049 3.23592 2.32358C2.73236 2.94223 2.4171 3.58902 2.29019 4.26343C2.25296 4.46122 2.22958 4.65607 2.22002 4.84802C2.21049 5.03978 2.21666 5.25921 2.23856 5.50629C2.26036 5.75328 2.28076 5.93755 2.29962 6.05859C2.3185 6.17971 2.35537 6.39727 2.41017 6.71133C2.46484 7.02528 2.49711 7.21724 2.50669 7.28736C2.62804 8.05416 2.81159 8.75286 3.05721 9.38364C3.45955 10.431 4.0671 11.5494 4.87947 12.7385C5.69189 13.9275 6.5128 14.9 7.34227 15.6558C7.84054 16.1138 8.42497 16.5388 9.09505 16.9307C9.15695 16.965 9.32408 17.0647 9.5965 17.2301C9.86909 17.3953 10.0584 17.5087 10.1644 17.5704C10.2704 17.6321 10.4347 17.7182 10.6566 17.8283C10.8791 17.9386 11.0811 18.0241 11.2631 18.0851C11.4454 18.1456 11.6354 18.1949 11.8333 18.2321C12.5076 18.359 13.2248 18.3003 13.9843 18.0561C14.8018 17.785 15.3221 17.4805 15.545 17.1426C15.6605 16.9748 15.7844 16.7381 15.9177 16.4329C16.0513 16.1279 16.1364 15.8764 16.1737 15.6784C16.1933 15.5755 16.1967 15.4965 16.1843 15.4406Z" fill="url(#paint0_linear_331_157)"/>
<defs>
<linearGradient id="paint0_linear_331_157" x1="22.6434" y1="0.0772131" x2="-6.93539" y2="-1.45284" gradientUnits="userSpaceOnUse">
<stop offset="0.0737504" stop-color="#D9433E"/>
<stop offset="0.763435" stop-color="#F59D0E"/>
<stop offset="1" stop-color="#FF7601"/>
</linearGradient>
</defs>
</svg>
