<svg width="17" height="17" viewBox="0 0 17 17" fill="none" xmlns="http://www.w3.org/2000/svg">
<g clip-path="url(#clip0_574_203)">
<path d="M8.49998 0C3.80591 0 0 3.80592 0 8.5C0 13.194 3.80591 17 8.49998 17C13.194 17 16.9999 13.194 16.9999 8.5C16.9999 3.80592 13.194 0 8.49998 0ZM12.9885 12.4024L12.308 13.0832C12.1864 13.2045 11.8307 13.2802 11.8192 13.2802C9.66619 13.299 7.59314 12.4533 6.06998 10.93C4.54265 9.40176 3.69596 7.32131 3.7187 5.16101C3.7187 5.16003 3.79662 4.81443 3.91802 4.69419L4.59856 4.01354C4.8476 3.76335 5.32598 3.65029 5.6611 3.7624L5.80426 3.81016C6.1384 3.92217 6.48922 4.29162 6.58154 4.632L6.92388 5.88847C7.0162 6.22983 6.89168 6.71546 6.64271 6.9645L6.18829 7.41899C6.63444 9.07067 7.9304 10.3669 9.58235 10.8141L10.0366 10.3595C10.2868 10.1093 10.7722 9.98491 11.1129 10.0771L12.3692 10.4207C12.7096 10.5142 13.079 10.8628 13.191 11.1968L13.2387 11.3421C13.3497 11.6762 13.2375 12.1545 12.9885 12.4024Z" fill="#F59D0E"/>
</g>
<defs>
<clipPath id="clip0_574_203">
<rect width="17" height="17" fill="white"/>
</clipPath>
</defs>
</svg>
