<svg width="21" height="20" viewBox="0 0 21 20" fill="none" xmlns="http://www.w3.org/2000/svg">
<path d="M6.8097 14.7164V16.2857H14.6668V14.7164H6.8097ZM6.8097 12.0973V13.6667H14.6668V12.0973H6.8097ZM2.09542 13.6667H3.66685V17.8582C3.66161 19.131 3.95389 19.4286 5.23827 19.4286H16.2383C17.5227 19.4286 17.8097 19.1918 17.8097 17.8582V13.6667H19.3811C20.7168 13.6876 20.9678 13.3906 20.9526 12.0963V6.33438C20.9526 5.10343 20.7535 4.7619 19.3811 4.7619H17.8097V2.1439C17.8249 0.850093 17.574 0.571426 16.2383 0.571426H5.23827C3.98113 0.571426 3.66161 0.871045 3.66685 2.1439V4.7619H2.09542C0.743989 4.7619 0.523989 5.05628 0.523989 6.33438V12.0963C0.518751 13.3691 0.838275 13.6876 2.09542 13.6667ZM16.2383 17.8571H5.23827V11.0476H16.2383V17.8571ZM17.223 8.16771C17.223 7.69628 17.6002 7.31966 18.0716 7.31966C18.543 7.31966 18.9202 7.69628 18.9202 8.16771C18.9202 8.63914 18.543 9.01628 18.0716 9.01628C17.6002 9.01628 17.223 8.63914 17.223 8.16771ZM5.23827 2.14286H16.2383V4.764H5.23827V2.14286Z" fill="black"/>
</svg>
