<svg width="16" height="16" viewBox="0 0 16 16" fill="none" xmlns="http://www.w3.org/2000/svg">
<g clip-path="url(#clip0_603_156)">
<path d="M7.89356 0.000604975C3.47565 0.0597354 -0.0575714 3.68947 0.00121125 8.10756C0.0603417 12.5237 3.68973 16.058 8.10747 15.9992C12.5245 15.9397 16.0584 12.31 15.9996 7.89226C15.9405 3.47574 12.311 -0.0583515 7.89356 0.000604975ZM7.86991 12.8695L7.82573 12.8688C7.14538 12.8486 6.66573 12.3474 6.68504 11.6771C6.70399 11.0183 7.1953 10.5401 7.85321 10.5401L7.89269 10.5408C8.59199 10.5615 9.06625 11.0576 9.0466 11.7472C9.02712 12.4079 8.54347 12.8695 7.86991 12.8695ZM10.7316 7.18965C10.5716 7.41695 10.2198 7.69921 9.77652 8.04461L9.28834 8.38165C9.02034 8.59 8.8586 8.786 8.79791 8.97887C8.75008 9.13069 8.7266 9.17087 8.72243 9.47974L8.72173 9.55817H6.85773L6.86312 9.40043C6.88591 8.75208 6.90191 8.37069 7.1706 8.05556C7.59217 7.56061 8.52208 6.96182 8.56156 6.93643C8.69478 6.83608 8.80712 6.72182 8.89078 6.59974C9.08643 6.33 9.17304 6.11765 9.17304 5.90895C9.17304 5.61939 9.08712 5.35156 8.91721 5.11313C8.75391 4.88304 8.44365 4.76652 7.99495 4.76652C7.54991 4.76652 7.24521 4.90774 7.06295 5.19747C6.87547 5.49539 6.78069 5.80826 6.78069 6.12791V6.20739H4.85878L4.86225 6.12443C4.91182 4.94721 5.33199 4.09956 6.1106 3.60495C6.59982 3.29 7.20852 3.13034 7.91878 3.13034C8.84852 3.13034 9.63339 3.35626 10.2513 3.80182C10.8774 4.2533 11.195 4.92947 11.195 5.81156C11.195 6.30495 11.0391 6.76843 10.7316 7.18965Z" fill="#C4C4C4"/>
<path d="M7.89356 0.000604975C3.47565 0.0597354 -0.0575714 3.68947 0.00121125 8.10756C0.0603417 12.5237 3.68973 16.058 8.10747 15.9992C12.5245 15.9397 16.0584 12.31 15.9996 7.89226C15.9405 3.47574 12.311 -0.0583515 7.89356 0.000604975ZM7.86991 12.8695L7.82573 12.8688C7.14538 12.8486 6.66573 12.3474 6.68504 11.6771C6.70399 11.0183 7.1953 10.5401 7.85321 10.5401L7.89269 10.5408C8.59199 10.5615 9.06625 11.0576 9.0466 11.7472C9.02712 12.4079 8.54347 12.8695 7.86991 12.8695ZM10.7316 7.18965C10.5716 7.41695 10.2198 7.69921 9.77652 8.04461L9.28834 8.38165C9.02034 8.59 8.8586 8.786 8.79791 8.97887C8.75008 9.13069 8.7266 9.17087 8.72243 9.47974L8.72173 9.55817H6.85773L6.86312 9.40043C6.88591 8.75208 6.90191 8.37069 7.1706 8.05556C7.59217 7.56061 8.52208 6.96182 8.56156 6.93643C8.69478 6.83608 8.80712 6.72182 8.89078 6.59974C9.08643 6.33 9.17304 6.11765 9.17304 5.90895C9.17304 5.61939 9.08712 5.35156 8.91721 5.11313C8.75391 4.88304 8.44365 4.76652 7.99495 4.76652C7.54991 4.76652 7.24521 4.90774 7.06295 5.19747C6.87547 5.49539 6.78069 5.80826 6.78069 6.12791V6.20739H4.85878L4.86225 6.12443C4.91182 4.94721 5.33199 4.09956 6.1106 3.60495C6.59982 3.29 7.20852 3.13034 7.91878 3.13034C8.84852 3.13034 9.63339 3.35626 10.2513 3.80182C10.8774 4.2533 11.195 4.92947 11.195 5.81156C11.195 6.30495 11.0391 6.76843 10.7316 7.18965Z" fill="url(#paint0_linear_603_156)"/>
</g>
<defs>
<linearGradient id="paint0_linear_603_156" x1="19.5272" y1="-4.14828" x2="-10.2804" y2="-0.119828" gradientUnits="userSpaceOnUse">
<stop offset="0.0737504" stop-color="#D9433E"/>
<stop offset="0.763435" stop-color="#F59D0E"/>
<stop offset="1" stop-color="#FF7601"/>
</linearGradient>
<clipPath id="clip0_603_156">
<rect width="16" height="16" fill="white"/>
</clipPath>
</defs>
</svg>
