<svg width="33" height="33" viewBox="0 0 33 33" fill="none" xmlns="http://www.w3.org/2000/svg">
<path d="M11.3226 10.8926H0V12.9551H11.3226V10.8926Z" fill="white"/>
<path d="M11.3227 15.1873H3.06445V17.2498H11.3227V15.1873Z" fill="white"/>
<path d="M11.3225 20.0449H6.16113V22.1074H11.3225V20.0449Z" fill="white"/>
<path d="M32.7465 10.0701C32.483 9.68441 32.0401 9.42969 31.5404 9.42969H15.7783C15.289 9.42969 14.8564 9.67564 14.5908 10.0479L23.688 17.6333L32.7465 10.0701Z" fill="white"/>
<path d="M14.3184 11.3406V22.1104C14.3184 22.9133 14.9753 23.5702 15.7781 23.5702H31.5402C32.3431 23.5702 33 22.9133 33 22.1104V11.3792L23.6883 19.1538L14.3184 11.3406Z" fill="white"/>
</svg>
