<svg width="15" height="17" viewBox="0 0 15 17" fill="none" xmlns="http://www.w3.org/2000/svg">
<path d="M7.48752 8.86621C3.70846 8.87334 0.582243 11.8653 0.393445 15.6464C0.38842 15.7537 0.405281 15.8609 0.443004 15.9615C0.480727 16.0621 0.538521 16.1539 0.61287 16.2314C0.687219 16.309 0.776567 16.3706 0.875476 16.4125C0.974385 16.4544 1.08079 16.4757 1.1882 16.4752H13.8178C13.9247 16.4749 14.0304 16.4529 14.1286 16.4106C14.2268 16.3684 14.3154 16.3066 14.389 16.2292C14.4627 16.1518 14.52 16.0602 14.5573 15.96C14.5947 15.8599 14.6113 15.7532 14.6063 15.6464C14.4173 11.8605 11.2837 8.86663 7.49989 8.86621H7.48752Z" fill="#C4C4C4"/>
<path d="M7.48752 8.86621C3.70846 8.87334 0.582243 11.8653 0.393445 15.6464C0.38842 15.7537 0.405281 15.8609 0.443004 15.9615C0.480727 16.0621 0.538521 16.1539 0.61287 16.2314C0.687219 16.309 0.776567 16.3706 0.875476 16.4125C0.974385 16.4544 1.08079 16.4757 1.1882 16.4752H13.8178C13.9247 16.4749 14.0304 16.4529 14.1286 16.4106C14.2268 16.3684 14.3154 16.3066 14.389 16.2292C14.4627 16.1518 14.52 16.0602 14.5573 15.96C14.5947 15.8599 14.6113 15.7532 14.6063 15.6464C14.4173 11.8605 11.2837 8.86663 7.49989 8.86621H7.48752Z" fill="url(#paint0_linear_645_202)"/>
<path d="M7.5002 0.524658C5.49695 0.524658 3.86378 2.16551 3.86377 4.17098C3.86376 6.17646 5.49694 7.82296 7.5002 7.82296C9.50345 7.82296 11.1423 6.17646 11.1423 4.17098C11.1423 2.16551 9.50344 0.524658 7.5002 0.524658Z" fill="#C4C4C4"/>
<path d="M7.5002 0.524658C5.49695 0.524658 3.86378 2.16551 3.86377 4.17098C3.86376 6.17646 5.49694 7.82296 7.5002 7.82296C9.50345 7.82296 11.1423 6.17646 11.1423 4.17098C11.1423 2.16551 9.50344 0.524658 7.5002 0.524658Z" fill="url(#paint1_linear_645_202)"/>
<defs>
<linearGradient id="paint0_linear_645_202" x1="17.7405" y1="6.89351" x2="-7.60891" y2="13.2937" gradientUnits="userSpaceOnUse">
<stop offset="0.0737504" stop-color="#D9433E"/>
<stop offset="0.763435" stop-color="#F59D0E"/>
<stop offset="1" stop-color="#FF7601"/>
</linearGradient>
<linearGradient id="paint1_linear_645_202" x1="12.7467" y1="-1.36749" x2="-0.814397" y2="0.460315" gradientUnits="userSpaceOnUse">
<stop offset="0.0737504" stop-color="#D9433E"/>
<stop offset="0.763435" stop-color="#F59D0E"/>
<stop offset="1" stop-color="#FF7601"/>
</linearGradient>
</defs>
</svg>
