<svg width="34" height="34" viewBox="0 0 34 34" fill="none" xmlns="http://www.w3.org/2000/svg">
<path d="M17.0001 1.30566C8.3321 1.30566 1.30566 8.3321 1.30566 17.0001C1.30566 25.668 8.3321 32.6945 17.0001 32.6945C25.668 32.6945 32.6945 25.668 32.6945 17.0001C32.6945 8.3321 25.668 1.30566 17.0001 1.30566ZM25.4348 22.9558C24.765 23.3747 22.0433 23.4995 21.3844 23.0208C21.0229 22.7583 20.6925 22.4299 20.3786 22.1171C20.159 21.8984 19.9098 21.7924 19.7211 21.555C19.5671 21.3609 19.4613 21.1317 19.2991 20.94C19.0254 20.6183 18.6042 20.3446 18.271 20.7377C17.7691 21.3289 18.3499 22.49 17.6807 22.9317C17.4563 23.0799 17.2299 23.1228 16.9494 23.1017L16.3282 23.1299C15.9634 23.1371 15.3854 23.1405 14.9703 23.0657C14.5072 22.982 14.1247 22.7291 13.7058 22.5434C12.9109 22.1908 12.1537 21.7104 11.5774 21.045C10.009 19.2328 7.90234 16.7406 7.08396 14.4623C6.91566 13.9941 6.47094 13.0669 6.89254 12.6654C7.46578 12.2489 10.2793 12.1316 10.7182 12.7756C10.8964 13.0374 11.0089 13.4202 11.1351 13.717C11.2921 14.0869 11.3771 14.4354 11.6226 14.7629C11.8399 15.0532 12 15.3453 12.168 15.6635C12.3567 16.0209 12.5348 16.3636 12.7643 16.6924C12.9201 16.9161 13.3318 17.3611 13.5919 17.3941C14.227 17.4754 14.1876 15.9321 14.1403 15.5554C14.0951 15.1923 14.0835 14.8071 14.0954 14.4388C14.1056 14.1247 14.1339 13.682 13.9479 13.4256C13.6446 13.0074 12.969 13.3202 12.9163 12.7582C13.0278 12.5988 13.0044 12.4573 13.7493 12.2118C14.3362 12.0191 14.7153 12.0252 15.1022 12.0561C15.891 12.1194 16.7274 11.9058 17.489 12.1615C18.2166 12.4067 18.104 13.4406 18.0796 14.0601C18.0466 14.9057 18.0819 15.7312 18.0796 16.5897C18.0785 16.9803 18.0629 17.3608 18.5396 17.3288C18.9863 17.2993 19.0319 16.9232 19.2451 16.6131C19.5416 16.1807 19.8139 15.7421 20.1158 15.3113C20.5228 14.7289 20.6459 14.0744 21.0291 13.4777C21.1661 13.2645 21.2841 12.8102 21.4952 12.6416C21.655 12.5134 21.9586 12.5804 22.1521 12.5804H22.6121C22.964 12.5804 23.323 12.5777 23.6848 12.5903C24.2057 12.6083 24.7891 12.4886 25.3056 12.5617C27.5343 12.8762 22.5043 17.6406 22.7661 18.4913C22.947 19.0788 24.0945 19.7354 24.5086 20.2165C25.0584 20.8574 26.7509 22.1313 25.4348 22.9558Z" fill="white"/>
</svg>
