<svg width="17" height="17" viewBox="0 0 17 17" fill="none" xmlns="http://www.w3.org/2000/svg">
<path d="M8.5 17C13.1944 17 17 13.1944 17 8.5C17 3.80559 13.1944 0 8.5 0C3.80559 0 0 3.80559 0 8.5C0 13.1944 3.80559 17 8.5 17Z" fill="#25D366"/>
<path fill-rule="evenodd" clip-rule="evenodd" d="M8.77995 13.229H8.77786C7.93194 13.2287 7.10074 13.0165 6.36248 12.6138L3.68311 13.3167L4.40015 10.6975C3.95783 9.93101 3.72511 9.06154 3.72546 8.1707C3.7266 5.38394 5.99397 3.11667 8.77988 3.11667C10.132 3.11725 11.401 3.64364 12.3553 4.599C13.3096 5.55433 13.8348 6.82419 13.8343 8.1747C13.8332 10.9609 11.5667 13.2279 8.77995 13.229ZM6.48665 11.6988L6.64004 11.7898C7.28505 12.1726 8.02441 12.3751 8.77825 12.3754H8.77995C11.0954 12.3754 12.9799 10.4908 12.9809 8.17442C12.9813 7.05189 12.5448 5.99644 11.7516 5.20236C10.9585 4.40828 9.90369 3.97074 8.78158 3.97036C6.46434 3.97036 4.57978 5.85477 4.57886 8.17102C4.57855 8.96481 4.80064 9.73785 5.22114 10.4067L5.32106 10.5656L4.89666 12.1159L6.48665 11.6988ZM11.1533 9.26288C11.2414 9.30545 11.3009 9.33421 11.3263 9.3766C11.3579 9.42927 11.3579 9.68214 11.2527 9.97716C11.1474 10.2722 10.6428 10.5414 10.4002 10.5777C10.1826 10.6102 9.90727 10.6238 9.60474 10.5276C9.42131 10.4694 9.18611 10.3917 8.88479 10.2616C7.70084 9.75035 6.90071 8.60285 6.74948 8.38596C6.73889 8.37077 6.73149 8.36014 6.72734 8.35462L6.72635 8.35327C6.65952 8.26409 6.21168 7.66658 6.21168 7.04821C6.21168 6.46645 6.49742 6.16155 6.62896 6.02119C6.63799 6.01159 6.64628 6.00274 6.65368 5.99463C6.76946 5.86819 6.90627 5.83657 6.99046 5.83657C7.07464 5.83657 7.15893 5.83734 7.23253 5.84106C7.24159 5.84152 7.25105 5.84145 7.26079 5.84138C7.33439 5.84096 7.42615 5.84043 7.51668 6.05785C7.55149 6.1415 7.60245 6.26557 7.65618 6.3964C7.76484 6.66096 7.88494 6.95329 7.90605 6.99558C7.93764 7.05879 7.95868 7.13253 7.91657 7.21682C7.91026 7.22947 7.90442 7.2414 7.89882 7.25281C7.86719 7.31737 7.84396 7.36483 7.79027 7.42752C7.7692 7.45213 7.74738 7.47869 7.72556 7.50526C7.68211 7.55817 7.63869 7.61108 7.60086 7.64877C7.53761 7.71174 7.4718 7.78005 7.54547 7.90649C7.61914 8.03293 7.87261 8.44649 8.24803 8.78139C8.65164 9.14137 9.00241 9.29352 9.1802 9.37062C9.2149 9.3857 9.24303 9.39789 9.26367 9.40823C9.3899 9.47145 9.46357 9.46086 9.53727 9.3766C9.61093 9.29231 9.85297 9.00781 9.93712 8.88141C10.0213 8.75504 10.1055 8.77608 10.2213 8.81819C10.3371 8.8604 10.958 9.16587 11.0843 9.22909C11.1089 9.24142 11.132 9.25257 11.1533 9.26288Z" fill="#FDFDFD"/>
</svg>
