<svg width="33" height="34" viewBox="0 0 33 34" fill="none" xmlns="http://www.w3.org/2000/svg">
<path d="M16.7877 15.1451C16.5155 14.9836 16.2392 14.834 15.9818 14.6474C15.7353 14.4689 15.5212 14.2904 15.273 14.1163C15.1407 14.0235 14.8499 13.9323 14.8499 13.8433C14.8499 13.9745 14.8499 14.5008 14.8499 14.5736C14.8499 14.9948 14.8189 17.162 14.8235 17.4337C14.8301 17.8882 14.7958 18.3428 14.812 18.7974C14.8272 19.2309 14.8298 19.645 14.8153 20.0979C14.8153 20.0979 15.8663 19.5719 16.0066 19.4811C16.5458 19.1313 17.0741 18.7515 17.6266 18.4265C17.8982 18.2667 18.179 18.1252 18.4384 17.9447C18.674 17.7798 19.5871 16.9886 19.6188 17.0087C19.197 16.7431 18.7882 16.4653 18.3486 16.2304C17.7863 15.9298 17.3355 15.4698 16.7877 15.1451Z" fill="white"/>
<path d="M16.4999 1.30566C8.08687 1.30566 1.26709 8.3321 1.26709 17.0001C1.26709 25.668 8.08687 32.6945 16.4999 32.6945C24.9129 32.6945 31.7327 25.668 31.7327 17.0001C31.7327 8.3321 24.9129 1.30566 16.4999 1.30566ZM24.8667 20.4048C24.7093 21.1685 24.511 21.9671 24.0028 22.5703C23.4513 23.2238 22.5016 23.0517 21.7429 23.1082C19.8986 23.2455 18.0582 23.117 16.2125 23.167C15.4538 23.1877 14.7057 23.1697 13.949 23.1309C13.1959 23.0922 12.4082 23.1751 11.6555 23.1126C11.1988 23.0742 10.7391 23.0731 10.284 23.0153C9.91903 22.9691 9.36727 22.9144 9.09106 22.6301C8.95675 22.4921 8.91286 22.2775 8.79637 22.1164L8.6284 21.8145C7.90537 20.226 7.91989 18.477 7.91692 16.7417C7.91527 16.097 7.99117 15.4558 7.97434 14.8105C7.96345 14.394 8.14693 13.9996 8.17201 13.5803C8.19775 13.1601 8.27464 12.7552 8.47198 12.3903C8.8561 11.6808 9.05047 11.3476 9.76426 11.0467C10.1217 10.8957 10.7876 10.8535 11.1704 10.861C11.6261 10.8692 12.0828 10.8671 12.5379 10.8617C13.4632 10.8501 14.3872 10.8219 15.3122 10.825C16.1168 10.8274 16.9315 10.8314 17.7341 10.8831C18.5376 10.9341 19.3445 10.8549 20.1504 10.876C20.8143 10.8933 21.4796 10.892 22.1422 10.9423C22.6382 10.98 23.2164 11.0422 23.6474 11.3261C23.9061 11.4965 24.1938 11.7239 24.3103 12.0034C24.6489 12.8157 24.9307 13.6381 24.9783 14.5269C25.0271 15.4374 25.0383 16.3493 25.0624 17.2605C25.0667 17.4176 25.0713 17.575 25.0763 17.7321C25.1056 18.6253 25.0459 19.53 24.8667 20.4048Z" fill="white"/>
</svg>
